<?xml version="1.0" encoding="UTF-8"?>
<svg version="1.1" viewBox="0 0 1024 1024" xmlns="http://www.w3.org/2000/svg" xmlns:xlink="http://www.w3.org/1999/xlink">
<g stroke-width="0">
<rect x="1.1384e-6" y="1.157e-6" width="1024" height="1024" fill="#fff"/>
<circle cx="512" cy="512" r="409.6" fill="#ff0"/>
<circle cx="512" cy="512" r="409.6" fill="#171"/>
<circle cx="512" cy="512" r="364" fill="#222"/>
<path d="m602.13 777.83-301.2-80.34s4.9036-54.259 20.17-75.276c41.079-56.553 175.84-114.25 175.84-114.25s-87.858-117.34-95.157-186.86c-2.7002-25.718 20.079-74.935 20.079-74.935l301.2 80.34s-4.9036 54.259-20.17 75.276c-41.079 56.553-175.84 114.25-175.84 114.25s87.858 117.34 95.157 186.86c2.7002 25.718-20.079 74.935-20.079 74.935z" fill="#fff"/>
</g>
</svg>